<svg width="388" height="312" viewBox="0 0 388 312" fill="none" xmlns="http://www.w3.org/2000/svg">
<mask id="path-1-outside-1_1_6147" maskUnits="userSpaceOnUse" x="149.6" y="-0.599609" width="89" height="96" fill="black">
<rect fill="white" x="149.6" y="-0.599609" width="89" height="96"/>
<path fill-rule="evenodd" clip-rule="evenodd" d="M197.985 85.0111C218.98 83.006 235.4 65.3207 235.4 43.8004C235.4 20.9358 216.864 2.40039 194 2.40039C171.135 2.40039 152.6 20.9358 152.6 43.8004C152.6 65.2455 168.905 82.8823 189.795 84.9895L193.363 91.8299C193.587 92.2599 194.203 92.2599 194.427 91.83L197.985 85.0111Z"/>
</mask>
<path fill-rule="evenodd" clip-rule="evenodd" d="M197.985 85.0111C218.98 83.006 235.4 65.3207 235.4 43.8004C235.4 20.9358 216.864 2.40039 194 2.40039C171.135 2.40039 152.6 20.9358 152.6 43.8004C152.6 65.2455 168.905 82.8823 189.795 84.9895L193.363 91.8299C193.587 92.2599 194.203 92.2599 194.427 91.83L197.985 85.0111Z" fill="#FDF0DF"/>
<path d="M197.985 85.0111L197.756 82.6219L196.459 82.7458L195.857 83.9009L197.985 85.0111ZM189.795 84.9895L191.922 83.8794L191.324 82.7315L190.035 82.6016L189.795 84.9895ZM193.363 91.8299L191.235 92.94L191.235 92.94L193.363 91.8299ZM194.427 91.83L196.555 92.9401H196.555L194.427 91.83ZM233 43.8004C233 64.0718 217.532 80.7333 197.756 82.6219L198.213 87.4002C220.427 85.2786 237.8 66.5697 237.8 43.8004H233ZM194 4.80039C215.539 4.80039 233 22.2613 233 43.8004H237.8C237.8 19.6103 218.19 0.00039053 194 0.00039053V4.80039ZM155 43.8004C155 22.2613 172.461 4.80039 194 4.80039V0.00039053C169.81 0.00039053 150.2 19.6103 150.2 43.8004H155ZM190.035 82.6016C170.359 80.6168 155 64.0008 155 43.8004H150.2C150.2 66.4902 167.451 85.1477 189.554 87.3773L190.035 82.6016ZM195.491 90.7199L191.922 83.8794L187.667 86.0995L191.235 92.94L195.491 90.7199ZM192.299 90.7198C192.972 89.4299 194.818 89.43 195.491 90.7199L191.235 92.94C192.357 95.0898 195.433 95.0899 196.555 92.9401L192.299 90.7198ZM195.857 83.9009L192.299 90.7198L196.555 92.9401L200.112 86.1212L195.857 83.9009Z" fill="#FEE2CE" mask="url(#path-1-outside-1_1_6147)"/>
<path d="M169.4 32.4004L171.162 34.1617C172.247 35.2473 173.925 35.472 175.258 34.7102L175.707 34.4537C176.614 33.9357 177.741 34.0059 178.576 34.6323C179.222 35.1169 180.056 35.2761 180.835 35.0636L185.058 33.912C185.779 33.7154 186.55 33.8626 187.148 34.3109L187.335 34.4513C188.085 35.0137 189.116 35.0137 189.866 34.4513C190.552 33.9368 191.481 33.8888 192.216 34.33L193 34.8003C193.605 35.1632 194.369 35.1237 194.933 34.7006L195.412 34.3418C195.949 33.9392 196.714 34.0702 197.086 34.6286C197.387 35.0806 197.96 35.2654 198.469 35.0747L200.698 34.2387C201.784 33.8317 202.99 33.895 204.027 34.4134L204.39 34.5954C205.404 35.1022 206.597 35.1022 207.61 34.5954L208.388 34.2065C209.131 33.835 210.02 33.9152 210.685 34.4136C211.464 34.9984 212.536 34.9984 213.316 34.4136C213.981 33.9152 214.87 33.835 215.613 34.2065L218 35.4004" stroke="#FCC49C" stroke-width="1.8"/>
<path d="M169.4 42L171.162 43.7613C172.247 44.8469 173.925 45.0716 175.258 44.3099L175.707 44.0533C176.614 43.5353 177.741 43.6055 178.576 44.2319C179.222 44.7165 180.056 44.8757 180.835 44.6632L185.058 43.5116C185.779 43.315 186.55 43.4622 187.148 43.9105L187.335 44.0509C188.085 44.6133 189.116 44.6133 189.866 44.0509C190.552 43.5364 191.481 43.4884 192.216 43.9296L193 44.3999C193.605 44.7628 194.369 44.7233 194.933 44.3002L195.412 43.9414C195.949 43.5388 196.714 43.6698 197.086 44.2282C197.387 44.6802 197.96 44.8651 198.469 44.6743L202.4 43.2" stroke="#FCC49C" stroke-width="1.8"/>
<path d="M169.4 51.5996L171.162 53.3609C172.247 54.4465 173.925 54.6712 175.258 53.9095L175.707 53.6529C176.614 53.1349 177.741 53.2051 178.576 53.8315C179.222 54.3161 180.056 54.4753 180.835 54.2628L185.058 53.1112C185.779 52.9146 186.55 53.0618 187.148 53.5101L187.335 53.6505C188.085 54.2129 189.116 54.2129 189.866 53.6505C190.552 53.136 191.481 53.0881 192.216 53.5292L193 53.9995C193.605 54.3624 194.369 54.323 194.933 53.8998L195.412 53.541C195.949 53.1384 196.714 53.2694 197.086 53.8278C197.387 54.2798 197.96 54.4647 198.469 54.2739L200.698 53.438C201.784 53.0309 202.99 53.0942 204.027 53.6127L204.39 53.7946C205.404 54.3014 206.597 54.3014 207.61 53.7946C208.83 53.1848 210.289 53.3164 211.38 54.1346L212 54.5996" stroke="#FCC49C" stroke-width="1.8"/>
<path d="M195.2 111.952C231.204 111.952 260.301 139.878 260.301 174.216C260.301 191.351 253.068 203.921 241.385 212.25C229.653 220.613 213.348 224.752 195.2 224.752C177.052 224.752 160.748 220.613 149.016 212.25C137.332 203.921 130.101 191.35 130.101 174.216C130.101 139.878 159.197 111.952 195.2 111.952Z" fill="#FDF0DF" stroke="#C4C4C4" stroke-width="2.4"/>
<ellipse cx="171.8" cy="148.402" rx="6.3" ry="8.4" fill="#525252"/>
<ellipse cx="215.601" cy="148.402" rx="6.3" ry="8.4" fill="#525252"/>
<ellipse cx="190.7" cy="164.904" rx="4.8" ry="3.3" fill="#FEE8B0"/>
<ellipse cx="190.698" cy="182.602" rx="4.8" ry="6" fill="#525252"/>
<mask id="mask0_1_6147" style="mask-type:alpha" maskUnits="userSpaceOnUse" x="185" y="176" width="11" height="13">
<ellipse cx="190.698" cy="182.602" rx="4.8" ry="6" fill="#525252"/>
</mask>
<g mask="url(#mask0_1_6147)">
<ellipse cx="190.698" cy="189.459" rx="4.8" ry="6" fill="#FFBDE8"/>
</g>
<path d="M231.378 109.697C233.34 108.589 235.869 108.089 239.026 108.488C245.517 109.309 249.487 112.316 253.548 115.838C257.603 119.354 261.807 123.456 268.575 125.852C272.658 127.296 277.341 127.863 282.094 128.138C284.476 128.275 286.897 128.34 289.285 128.4C291.68 128.461 294.039 128.516 296.326 128.634C300.915 128.87 305.099 129.354 308.521 130.574C311.897 131.778 314.455 133.67 315.952 136.701C318.414 142.632 317.872 152.635 311.231 160.146C304.639 167.604 291.791 172.845 269.193 168.682C246.029 164.414 232.172 148.269 227.39 133.664C224.99 126.337 224.922 119.55 226.928 114.888C227.922 112.576 229.416 110.805 231.378 109.697Z" fill="#C4C4C4" stroke="#C4C4C4" stroke-width="2.4"/>
<path d="M159.494 101.98C162.203 101.481 165.07 101.756 168.292 103.279C170.456 104.302 171.778 105.59 172.513 107.019C173.251 108.453 173.46 110.15 173.18 112.097C172.611 116.044 170.065 120.757 166.458 125.57C159.287 135.142 148.393 144.503 142.878 147.981C123.118 158.521 111.359 158.404 104.658 154.575C97.9469 150.74 95.755 142.86 95.9062 136.563L95.9072 136.549V136.534C95.9073 132.053 97.2302 129.207 99.3037 127.256C101.429 125.257 104.48 124.063 108.195 123.201C111.93 122.335 116.07 121.853 120.415 121.122C124.697 120.402 129.089 119.451 133.036 117.646C136.608 116.012 139.823 113.86 142.815 111.694C145.844 109.503 148.58 107.35 151.352 105.566C154.102 103.797 156.753 102.486 159.494 101.98Z" fill="#C4C4C4" stroke="#C4C4C4" stroke-width="2.4"/>
<path d="M218.301 133.403C217.401 132.662 214.941 131.498 212.301 132.768" stroke="#525252" stroke-width="1.8" stroke-linecap="round"/>
<path d="M168.5 133.403C169.4 132.662 171.86 131.498 174.5 132.768" stroke="#525252" stroke-width="1.8" stroke-linecap="round"/>
<path d="M95.9941 168.419C106.82 162.91 117.972 164.519 127.347 172.346C132.176 176.377 137.769 181.601 141.948 187.337C146.146 193.099 148.781 199.193 148.035 205.018L147.898 206.086C147.098 212.339 143.787 217.715 139.267 220.919C134.766 224.109 129.072 225.15 123.364 222.792C108.243 216.546 96.3827 206.856 87.834 197.438C79.5995 188.367 83.7246 174.663 95.0332 168.908L95.9941 168.419Z" fill="#FDF0DF" stroke="#C4C4C4" stroke-width="2.4"/>
<path d="M72.7617 165.074L80.8755 162.9L88.9893 160.726L103.897 216.363C99.6394 220.584 93.4672 222.237 87.6697 220.712L72.7617 165.074Z" fill="#F97B22"/>
<path d="M85.9609 214.336C91.67 214.43 97.2914 212.924 102.188 209.988L103.049 213.198C98.2209 216.294 92.5501 217.814 86.821 217.546L85.9609 214.336Z" fill="#FEF3EB"/>
<path d="M88.9896 160.725L72.7621 165.074L77.1839 152.919C77.4687 152.136 78.445 151.875 79.0831 152.41L88.9896 160.725Z" fill="#FEE2CE"/>
<path d="M82.489 155.013L75.5343 156.876L77.0372 152.433C77.3116 151.622 78.3229 151.351 78.9661 151.917L82.489 155.013Z" fill="black"/>
<path d="M159.783 169.896C161.189 169.182 162.907 169.713 163.665 171.095L208.475 252.753C209.268 254.199 208.707 256.015 207.236 256.761L146.88 287.398C145.48 288.109 143.768 287.585 143.006 286.212L97.784 204.763C96.9806 203.316 97.5396 201.491 99.0152 200.742L159.783 169.896Z" fill="#ABABAB" stroke="#C4C4C4" stroke-width="2"/>
<path d="M98.6586 204.277C98.1304 203.326 98.4978 202.126 99.4682 201.633L157.287 172.284C158.21 171.816 159.338 172.163 159.838 173.069L204.811 254.644C205.335 255.595 204.967 256.792 203.999 257.283L146.427 286.507C145.507 286.974 144.381 286.629 143.88 285.726L98.6586 204.277Z" fill="#C4C4C4"/>
<path d="M98.6559 204.276C98.1289 203.325 98.4966 202.126 99.4664 201.634L154.339 173.781C155.26 173.313 156.387 173.659 156.887 174.563L202.023 256.055C202.55 257.006 202.183 258.205 201.213 258.697L146.341 286.551C145.419 287.018 144.293 286.673 143.792 285.769L98.6559 204.276Z" fill="#E0E0E0"/>
<path d="M136.226 174.292C138.377 173.2 141.005 173.859 142.385 175.837L145.498 180.297C147.181 182.708 146.342 186.052 143.72 187.383L124.757 197.008C122.597 198.105 119.958 197.435 118.582 195.44L115.498 190.967C113.834 188.555 114.678 185.23 117.29 183.903L136.226 174.292Z" fill="white" stroke="#C4C4C4" stroke-width="2"/>
<path d="M194.395 254.577C205.22 260.086 216.372 258.477 225.747 250.65C230.576 246.619 236.17 241.396 240.349 235.659C244.546 229.897 247.181 223.803 246.436 217.979L246.299 216.91C245.498 210.657 242.187 205.281 237.667 202.077C233.166 198.887 227.473 197.846 221.765 200.204C206.644 206.451 194.783 216.14 186.234 225.558C178 234.63 182.125 248.333 193.434 254.088L194.395 254.577Z" fill="#FDF0DF" stroke="#C4C4C4" stroke-width="2.4"/>
</svg>
